<mxfile host="app.diagrams.net" modified="2023-10-03T13:26:32.223Z" agent="Mozilla/5.0 (Windows NT 10.0; Win64; x64) AppleWebKit/537.36 (KHTML, like Gecko) Chrome/117.0.0.0 Safari/537.36" etag="EomSrB0GF1UAuxEgV-uD" version="22.0.2" type="github" pages="3">
  <diagram id="XFZ-hpoHR0-XpEFwu2nl" name="Page-1">
    <mxGraphModel dx="2598" dy="1308" grid="1" gridSize="10" guides="1" tooltips="1" connect="1" arrows="1" fold="1" page="1" pageScale="1" pageWidth="1169" pageHeight="827" math="0" shadow="0">
      <root>
        <mxCell id="0" />
        <mxCell id="1" parent="0" />
        <mxCell id="Iq4nOUnd489xoeEo6U0S-1" style="edgeStyle=orthogonalEdgeStyle;rounded=0;orthogonalLoop=1;jettySize=auto;html=1;entryX=0.469;entryY=0.015;entryDx=0;entryDy=0;entryPerimeter=0;strokeColor=#00CC00;fontStyle=1" parent="1" source="Iq4nOUnd489xoeEo6U0S-3" target="Iq4nOUnd489xoeEo6U0S-13" edge="1">
          <mxGeometry relative="1" as="geometry">
            <Array as="points">
              <mxPoint x="647" y="430" />
            </Array>
          </mxGeometry>
        </mxCell>
        <mxCell id="Iq4nOUnd489xoeEo6U0S-3" value="&lt;b&gt;UFone CRM API&lt;/b&gt;&lt;br&gt;IP xxx.xxx.xxx.xx" style="sketch=0;aspect=fixed;html=1;points=[];align=center;image;fontSize=12;image=img/lib/mscae/App_Services.svg;" parent="1" vertex="1">
          <mxGeometry x="80" y="375.6" width="84.4" height="84.4" as="geometry" />
        </mxCell>
        <mxCell id="Iq4nOUnd489xoeEo6U0S-4" style="edgeStyle=orthogonalEdgeStyle;rounded=0;orthogonalLoop=1;jettySize=auto;html=1;entryX=0.995;entryY=0.396;entryDx=0;entryDy=0;entryPerimeter=0;exitX=0.849;exitY=1.032;exitDx=0;exitDy=0;exitPerimeter=0;strokeColor=#0000FF;" parent="1" source="Iq4nOUnd489xoeEo6U0S-24" target="Iq4nOUnd489xoeEo6U0S-3" edge="1">
          <mxGeometry relative="1" as="geometry" />
        </mxCell>
        <mxCell id="Iq4nOUnd489xoeEo6U0S-5" value="" style="sketch=0;aspect=fixed;html=1;points=[];align=center;image;fontSize=12;image=img/lib/mscae/App_Service_Mobile_App.svg;" parent="1" vertex="1">
          <mxGeometry x="531" y="120.59" width="54" height="79.41" as="geometry" />
        </mxCell>
        <mxCell id="Iq4nOUnd489xoeEo6U0S-6" style="edgeStyle=orthogonalEdgeStyle;rounded=0;orthogonalLoop=1;jettySize=auto;html=1;strokeColor=#00994D;entryX=0.781;entryY=-0.023;entryDx=0;entryDy=0;entryPerimeter=0;" parent="1" target="Iq4nOUnd489xoeEo6U0S-13" edge="1">
          <mxGeometry x="1" y="-130" relative="1" as="geometry">
            <mxPoint x="730" y="500" as="targetPoint" />
            <mxPoint x="750" y="370" as="sourcePoint" />
            <mxPoint x="-50" y="10" as="offset" />
            <Array as="points">
              <mxPoint x="750" y="418" />
              <mxPoint x="673" y="418" />
            </Array>
          </mxGeometry>
        </mxCell>
        <mxCell id="Iq4nOUnd489xoeEo6U0S-7" value="&lt;b&gt;Grotto Game Portal&lt;/b&gt;&lt;br&gt;IP xxx.xxx.xx.xxx" style="sketch=0;aspect=fixed;html=1;points=[];align=center;image;fontSize=12;image=img/lib/mscae/CustomDomain.svg;" parent="1" vertex="1">
          <mxGeometry x="690" y="250.57999999999998" width="90" height="75.6" as="geometry" />
        </mxCell>
        <mxCell id="Iq4nOUnd489xoeEo6U0S-8" value="API Connections" style="sketch=0;aspect=fixed;html=1;points=[];align=center;image;fontSize=12;image=img/lib/mscae/Connections.svg;strokeColor=#009900;" parent="1" vertex="1">
          <mxGeometry x="700" y="430.29" width="50" height="50" as="geometry" />
        </mxCell>
        <mxCell id="Iq4nOUnd489xoeEo6U0S-9" style="edgeStyle=orthogonalEdgeStyle;rounded=0;orthogonalLoop=1;jettySize=auto;html=1;entryX=-0.017;entryY=0.517;entryDx=0;entryDy=0;entryPerimeter=0;strokeColor=#00CC00;startArrow=none;" parent="1" target="Iq4nOUnd489xoeEo6U0S-13" edge="1">
          <mxGeometry relative="1" as="geometry">
            <mxPoint x="600" y="690" as="targetPoint" />
            <mxPoint x="170" y="730" as="sourcePoint" />
            <Array as="points">
              <mxPoint x="390" y="730" />
              <mxPoint x="390" y="691" />
            </Array>
          </mxGeometry>
        </mxCell>
        <mxCell id="Iq4nOUnd489xoeEo6U0S-10" value="&lt;b&gt;UFone CBS Charging&lt;/b&gt;&lt;br&gt;IP xxx.xxx.xxx.xxx" style="sketch=0;aspect=fixed;html=1;points=[];align=center;image;fontSize=12;image=img/lib/mscae/App_Services.svg;" parent="1" vertex="1">
          <mxGeometry x="90.4" y="699.7" width="74" height="74" as="geometry" />
        </mxCell>
        <mxCell id="Iq4nOUnd489xoeEo6U0S-11" value="" style="sketch=0;aspect=fixed;html=1;points=[];align=center;image;fontSize=12;image=img/lib/mscae/UserDefinedRoute.svg;" parent="1" vertex="1">
          <mxGeometry x="770" y="220" width="50" height="50" as="geometry" />
        </mxCell>
        <mxCell id="Iq4nOUnd489xoeEo6U0S-12" value="" style="sketch=0;aspect=fixed;html=1;points=[];align=center;image;fontSize=12;image=img/lib/mscae/UserDefinedRoute.svg;" parent="1" vertex="1">
          <mxGeometry x="572.5" y="90.3" width="50" height="50" as="geometry" />
        </mxCell>
        <mxCell id="Iq4nOUnd489xoeEo6U0S-38" style="edgeStyle=orthogonalEdgeStyle;rounded=0;orthogonalLoop=1;jettySize=auto;html=1;entryX=1.007;entryY=0.504;entryDx=0;entryDy=0;entryPerimeter=0;strokeColor=#00994D;" parent="1" source="Iq4nOUnd489xoeEo6U0S-13" target="Iq4nOUnd489xoeEo6U0S-3" edge="1">
          <mxGeometry relative="1" as="geometry">
            <Array as="points">
              <mxPoint x="660" y="418" />
            </Array>
          </mxGeometry>
        </mxCell>
        <mxCell id="Iq4nOUnd489xoeEo6U0S-13" value="&lt;b&gt;ARPU Gateway API&lt;/b&gt;&lt;br&gt;IP xxx.xxx.xxx.xx" style="sketch=0;aspect=fixed;html=1;points=[];align=center;image;fontSize=12;image=img/lib/mscae/App_Services.svg;" parent="1" vertex="1">
          <mxGeometry x="610" y="650" width="80" height="80" as="geometry" />
        </mxCell>
        <mxCell id="Iq4nOUnd489xoeEo6U0S-14" value="&lt;b&gt;ARPU SMS Gateway&lt;/b&gt;&lt;br&gt;IP xxx.xxx.xxx.xx" style="sketch=0;aspect=fixed;html=1;points=[];align=center;image;fontSize=12;image=img/lib/mscae/App_Services.svg;" parent="1" vertex="1">
          <mxGeometry x="920" y="664.71" width="75.29" height="75.29" as="geometry" />
        </mxCell>
        <mxCell id="Iq4nOUnd489xoeEo6U0S-15" value="API Connections" style="sketch=0;aspect=fixed;html=1;points=[];align=center;image;fontSize=12;image=img/lib/mscae/Connections.svg;" parent="1" vertex="1">
          <mxGeometry x="336" y="430.29" width="50" height="50" as="geometry" />
        </mxCell>
        <mxCell id="Iq4nOUnd489xoeEo6U0S-16" value="API Connections" style="sketch=0;aspect=fixed;html=1;points=[];align=center;image;fontSize=12;image=img/lib/mscae/Connections.svg;" parent="1" vertex="1">
          <mxGeometry x="280" y="673" width="50" height="50" as="geometry" />
        </mxCell>
        <mxCell id="Iq4nOUnd489xoeEo6U0S-18" value="VPN Connection" style="sketch=0;aspect=fixed;html=1;points=[];align=center;image;fontSize=12;image=img/lib/mscae/Virtual_Network.svg;" parent="1" vertex="1">
          <mxGeometry x="1019.9999999999999" y="590" width="50" height="28.000000000000004" as="geometry" />
        </mxCell>
        <mxCell id="Iq4nOUnd489xoeEo6U0S-19" value="" style="aspect=fixed;perimeter=ellipsePerimeter;html=1;align=center;shadow=0;dashed=0;spacingTop=3;image;image=img/lib/active_directory/database_server.svg;" parent="1" vertex="1">
          <mxGeometry x="35.430000000000014" y="390" width="63.14" height="77" as="geometry" />
        </mxCell>
        <mxCell id="Iq4nOUnd489xoeEo6U0S-21" value="" style="aspect=fixed;perimeter=ellipsePerimeter;html=1;align=center;shadow=0;dashed=0;spacingTop=3;image;image=img/lib/active_directory/database_server.svg;" parent="1" vertex="1">
          <mxGeometry x="690" y="633" width="63.14" height="77" as="geometry" />
        </mxCell>
        <mxCell id="Iq4nOUnd489xoeEo6U0S-22" value="" style="aspect=fixed;perimeter=ellipsePerimeter;html=1;align=center;shadow=0;dashed=0;spacingTop=3;image;image=img/lib/active_directory/database_server.svg;" parent="1" vertex="1">
          <mxGeometry x="995.29" y="672.7" width="63.14" height="77" as="geometry" />
        </mxCell>
        <mxCell id="Iq4nOUnd489xoeEo6U0S-24" value="&lt;div style=&quot;&quot;&gt;&lt;span style=&quot;background-color: initial;&quot;&gt;&lt;b&gt;&amp;nbsp;User subscribe through Mobile (MO/USSD).&lt;/b&gt;&lt;/span&gt;&lt;/div&gt;" style="text;html=1;strokeColor=none;fillColor=none;align=left;verticalAlign=middle;whiteSpace=wrap;rounded=0;" parent="1" vertex="1">
          <mxGeometry x="450" y="80.59" width="120" height="69.41" as="geometry" />
        </mxCell>
        <mxCell id="Iq4nOUnd489xoeEo6U0S-25" value="&lt;div style=&quot;&quot;&gt;&lt;b&gt;MO/USSD Connections&lt;/b&gt;&lt;/div&gt;" style="text;html=1;strokeColor=none;fillColor=none;align=left;verticalAlign=middle;whiteSpace=wrap;rounded=0;" parent="1" vertex="1">
          <mxGeometry x="307.5" y="140.30000000000004" width="120" height="69.41" as="geometry" />
        </mxCell>
        <mxCell id="Iq4nOUnd489xoeEo6U0S-26" value="&lt;div style=&quot;&quot;&gt;&lt;b&gt;MT SMSC Connection for BULK/MT to user Mobile&lt;/b&gt;&lt;/div&gt;" style="text;html=1;strokeColor=none;fillColor=none;align=left;verticalAlign=middle;whiteSpace=wrap;rounded=0;" parent="1" vertex="1">
          <mxGeometry x="950" y="90.3" width="100" height="69.41" as="geometry" />
        </mxCell>
        <mxCell id="Iq4nOUnd489xoeEo6U0S-27" value="&lt;div style=&quot;&quot;&gt;&lt;b&gt;Notifications Callback for OptIn/Optout&lt;/b&gt;&lt;/div&gt;" style="text;html=1;strokeColor=none;fillColor=none;align=left;verticalAlign=middle;whiteSpace=wrap;rounded=0;" parent="1" vertex="1">
          <mxGeometry x="386" y="420.59000000000003" width="145" height="69.41" as="geometry" />
        </mxCell>
        <mxCell id="Iq4nOUnd489xoeEo6U0S-28" value="&lt;div style=&quot;&quot;&gt;&lt;b&gt;Notifications Callback for Charging&lt;/b&gt;&lt;/div&gt;" style="text;html=1;strokeColor=none;fillColor=none;align=left;verticalAlign=middle;whiteSpace=wrap;rounded=0;" parent="1" vertex="1">
          <mxGeometry x="397.5" y="680.29" width="145" height="69.41" as="geometry" />
        </mxCell>
        <mxCell id="Iq4nOUnd489xoeEo6U0S-29" value="&lt;div style=&quot;&quot;&gt;&lt;b&gt;OptIn (HE)/OptOut/Send Pin/Verify Pin&amp;nbsp;&lt;/b&gt;&lt;/div&gt;&lt;b style=&quot;border-color: var(--border-color);&quot;&gt;Trhough APIs Requests&lt;/b&gt;" style="text;html=1;strokeColor=none;fillColor=none;align=left;verticalAlign=middle;whiteSpace=wrap;rounded=0;" parent="1" vertex="1">
          <mxGeometry x="477.5" y="330.29999999999995" width="145" height="69.41" as="geometry" />
        </mxCell>
        <mxCell id="Iq4nOUnd489xoeEo6U0S-30" value="&lt;b&gt;UFone SMSGateway&amp;nbsp;&lt;/b&gt;&lt;br&gt;IP xxx.xxx.xxx.xx" style="sketch=0;aspect=fixed;html=1;points=[];align=center;image;fontSize=12;image=img/lib/mscae/App_Services.svg;" parent="1" vertex="1">
          <mxGeometry x="1020.0000000000002" y="390" width="84.4" height="84.4" as="geometry" />
        </mxCell>
        <mxCell id="Iq4nOUnd489xoeEo6U0S-31" value="" style="aspect=fixed;perimeter=ellipsePerimeter;html=1;align=center;shadow=0;dashed=0;spacingTop=3;image;image=img/lib/active_directory/database_server.svg;" parent="1" vertex="1">
          <mxGeometry x="956.8600000000001" y="390" width="63.14" height="77" as="geometry" />
        </mxCell>
        <mxCell id="Iq4nOUnd489xoeEo6U0S-32" value="" style="endArrow=classic;startArrow=classic;html=1;rounded=0;strokeColor=#0000FF;" parent="1" target="Iq4nOUnd489xoeEo6U0S-14" edge="1">
          <mxGeometry width="50" height="50" relative="1" as="geometry">
            <mxPoint x="1060" y="510" as="sourcePoint" />
            <mxPoint x="990" y="640" as="targetPoint" />
          </mxGeometry>
        </mxCell>
        <mxCell id="Iq4nOUnd489xoeEo6U0S-33" value="" style="endArrow=classic;startArrow=none;html=1;rounded=0;entryX=0.98;entryY=0.432;entryDx=0;entryDy=0;entryPerimeter=0;exitX=0.376;exitY=-0.019;exitDx=0;exitDy=0;exitPerimeter=0;strokeColor=#000000;endFill=1;startFill=0;" parent="1" source="Iq4nOUnd489xoeEo6U0S-30" target="Iq4nOUnd489xoeEo6U0S-5" edge="1">
          <mxGeometry width="50" height="50" relative="1" as="geometry">
            <mxPoint x="970" y="220" as="sourcePoint" />
            <mxPoint x="1020" y="170" as="targetPoint" />
            <Array as="points">
              <mxPoint x="1040" y="160" />
            </Array>
          </mxGeometry>
        </mxCell>
        <mxCell id="Iq4nOUnd489xoeEo6U0S-34" value="" style="endArrow=classic;startArrow=classic;html=1;rounded=0;entryX=-0.08;entryY=0.713;entryDx=0;entryDy=0;entryPerimeter=0;strokeColor=#0000FF;" parent="1" target="Iq4nOUnd489xoeEo6U0S-14" edge="1">
          <mxGeometry width="50" height="50" relative="1" as="geometry">
            <mxPoint x="700" y="720" as="sourcePoint" />
            <mxPoint x="750" y="430" as="targetPoint" />
          </mxGeometry>
        </mxCell>
        <mxCell id="Iq4nOUnd489xoeEo6U0S-35" value="VPN Connection" style="sketch=0;aspect=fixed;html=1;points=[];align=center;image;fontSize=12;image=img/lib/mscae/Virtual_Network.svg;" parent="1" vertex="1">
          <mxGeometry x="780" y="723" width="50" height="28.000000000000004" as="geometry" />
        </mxCell>
        <mxCell id="Iq4nOUnd489xoeEo6U0S-36" value="&lt;div style=&quot;&quot;&gt;&lt;span style=&quot;background-color: initial;&quot;&gt;&lt;b&gt;&amp;nbsp;User subscribe through Portal.&lt;/b&gt;&lt;/span&gt;&lt;/div&gt;" style="text;html=1;strokeColor=none;fillColor=none;align=left;verticalAlign=middle;whiteSpace=wrap;rounded=0;" parent="1" vertex="1">
          <mxGeometry x="780" y="256.77" width="120" height="69.41" as="geometry" />
        </mxCell>
        <mxCell id="Iq4nOUnd489xoeEo6U0S-37" value="API Connections" style="sketch=0;aspect=fixed;html=1;points=[];align=center;image;fontSize=12;image=img/lib/mscae/Connections.svg;strokeColor=#009900;" parent="1" vertex="1">
          <mxGeometry x="427.5" y="340" width="50" height="50" as="geometry" />
        </mxCell>
        <mxCell id="Iq4nOUnd489xoeEo6U0S-20" value="" style="aspect=fixed;perimeter=ellipsePerimeter;html=1;align=center;shadow=0;dashed=0;spacingTop=3;image;image=img/lib/active_directory/database_server.svg;" parent="1" vertex="1">
          <mxGeometry x="35.43" y="699.6999999999999" width="63.14" height="77" as="geometry" />
        </mxCell>
      </root>
    </mxGraphModel>
  </diagram>
  <diagram id="z1BXuJWY3sJz0xcuCzpR" name="MuzicUP Component Colloberation">
    <mxGraphModel dx="2598" dy="1308" grid="1" gridSize="10" guides="1" tooltips="1" connect="1" arrows="1" fold="1" page="1" pageScale="1" pageWidth="1169" pageHeight="827" math="0" shadow="0">
      <root>
        <mxCell id="0" />
        <mxCell id="1" parent="0" />
        <mxCell id="dNwVMRSIJZshFomKGK8E-1" value="User" style="shape=umlActor;verticalLabelPosition=bottom;verticalAlign=top;html=1;outlineConnect=0;" vertex="1" parent="1">
          <mxGeometry x="50" y="80" width="30" height="60" as="geometry" />
        </mxCell>
      </root>
    </mxGraphModel>
  </diagram>
  <diagram name="MuzicUP Components Architecture" id="W1YoEjwqq9jiVjFT_SSB">
    <mxGraphModel dx="2598" dy="1308" grid="1" gridSize="10" guides="1" tooltips="1" connect="1" arrows="1" fold="1" page="1" pageScale="1" pageWidth="1169" pageHeight="827" math="0" shadow="0">
      <root>
        <mxCell id="wuGOkdKwMO8VdwPY9DZF-0" />
        <mxCell id="wuGOkdKwMO8VdwPY9DZF-1" parent="wuGOkdKwMO8VdwPY9DZF-0" />
        <mxCell id="UupQosg42-_fohMUtWr8-0" value="Database" style="rounded=0;whiteSpace=wrap;html=1;shadow=1;fillColor=#FFD966;" vertex="1" parent="wuGOkdKwMO8VdwPY9DZF-1">
          <mxGeometry x="40" y="750" width="1100" height="60" as="geometry" />
        </mxCell>
        <mxCell id="UupQosg42-_fohMUtWr8-1" value="BI Jobs" style="rounded=0;whiteSpace=wrap;html=1;fillColor=#A9C4EB;" vertex="1" parent="wuGOkdKwMO8VdwPY9DZF-1">
          <mxGeometry x="880" y="610" width="260" height="60" as="geometry" />
        </mxCell>
        <mxCell id="UupQosg42-_fohMUtWr8-2" value="Daily Uploader Service" style="rounded=0;whiteSpace=wrap;html=1;shadow=1;fillColor=#E6E6E6;fontStyle=1" vertex="1" parent="wuGOkdKwMO8VdwPY9DZF-1">
          <mxGeometry x="280" y="550" width="130" height="60" as="geometry" />
        </mxCell>
        <mxCell id="UupQosg42-_fohMUtWr8-3" value="Monthly Uploader Service" style="rounded=0;whiteSpace=wrap;html=1;shadow=1;fillColor=#E6E6E6;fontStyle=1" vertex="1" parent="wuGOkdKwMO8VdwPY9DZF-1">
          <mxGeometry x="420" y="550" width="140" height="60" as="geometry" />
        </mxCell>
        <mxCell id="UupQosg42-_fohMUtWr8-4" value="MuzicUP CMS" style="rounded=0;whiteSpace=wrap;html=1;shadow=1;fillColor=#E6E6E6;fontStyle=1" vertex="1" parent="wuGOkdKwMO8VdwPY9DZF-1">
          <mxGeometry x="30" y="550" width="120" height="60" as="geometry" />
        </mxCell>
        <mxCell id="UupQosg42-_fohMUtWr8-5" value="MetaData Service" style="rounded=0;whiteSpace=wrap;html=1;shadow=1;fillColor=#E6E6E6;fontStyle=1" vertex="1" parent="wuGOkdKwMO8VdwPY9DZF-1">
          <mxGeometry x="160" y="550" width="110" height="60" as="geometry" />
        </mxCell>
        <mxCell id="UupQosg42-_fohMUtWr8-6" style="edgeStyle=orthogonalEdgeStyle;rounded=0;orthogonalLoop=1;jettySize=auto;html=1;entryX=0.045;entryY=0;entryDx=0;entryDy=0;entryPerimeter=0;" edge="1" parent="wuGOkdKwMO8VdwPY9DZF-1" source="UupQosg42-_fohMUtWr8-4" target="UupQosg42-_fohMUtWr8-0">
          <mxGeometry relative="1" as="geometry" />
        </mxCell>
        <mxCell id="UupQosg42-_fohMUtWr8-9" style="edgeStyle=orthogonalEdgeStyle;rounded=0;orthogonalLoop=1;jettySize=auto;html=1;entryX=0.161;entryY=0.039;entryDx=0;entryDy=0;entryPerimeter=0;" edge="1" parent="wuGOkdKwMO8VdwPY9DZF-1" source="UupQosg42-_fohMUtWr8-5" target="UupQosg42-_fohMUtWr8-0">
          <mxGeometry relative="1" as="geometry" />
        </mxCell>
        <mxCell id="UupQosg42-_fohMUtWr8-10" style="edgeStyle=orthogonalEdgeStyle;rounded=0;orthogonalLoop=1;jettySize=auto;html=1;entryX=0.277;entryY=0.039;entryDx=0;entryDy=0;entryPerimeter=0;" edge="1" parent="wuGOkdKwMO8VdwPY9DZF-1" source="UupQosg42-_fohMUtWr8-2" target="UupQosg42-_fohMUtWr8-0">
          <mxGeometry relative="1" as="geometry" />
        </mxCell>
        <mxCell id="UupQosg42-_fohMUtWr8-11" style="edgeStyle=orthogonalEdgeStyle;rounded=0;orthogonalLoop=1;jettySize=auto;html=1;entryX=0.398;entryY=-0.016;entryDx=0;entryDy=0;entryPerimeter=0;" edge="1" parent="wuGOkdKwMO8VdwPY9DZF-1" source="UupQosg42-_fohMUtWr8-3" target="UupQosg42-_fohMUtWr8-0">
          <mxGeometry relative="1" as="geometry" />
        </mxCell>
        <mxCell id="UupQosg42-_fohMUtWr8-13" style="edgeStyle=orthogonalEdgeStyle;rounded=0;orthogonalLoop=1;jettySize=auto;html=1;entryX=0.393;entryY=1.021;entryDx=0;entryDy=0;entryPerimeter=0;" edge="1" parent="wuGOkdKwMO8VdwPY9DZF-1" source="UupQosg42-_fohMUtWr8-0" target="UupQosg42-_fohMUtWr8-1">
          <mxGeometry relative="1" as="geometry" />
        </mxCell>
        <mxCell id="UupQosg42-_fohMUtWr8-15" value="Mail Engine Service" style="rounded=0;whiteSpace=wrap;html=1;" vertex="1" parent="wuGOkdKwMO8VdwPY9DZF-1">
          <mxGeometry x="1000" y="460" width="120" height="60" as="geometry" />
        </mxCell>
        <mxCell id="UupQosg42-_fohMUtWr8-16" value="Discrepancy Service" style="rounded=0;whiteSpace=wrap;html=1;shadow=1;fillColor=#E6E6E6;fontStyle=1" vertex="1" parent="wuGOkdKwMO8VdwPY9DZF-1">
          <mxGeometry x="570" y="550" width="140" height="60" as="geometry" />
        </mxCell>
        <mxCell id="UupQosg42-_fohMUtWr8-17" style="edgeStyle=orthogonalEdgeStyle;rounded=0;orthogonalLoop=1;jettySize=auto;html=1;entryX=0.463;entryY=0.002;entryDx=0;entryDy=0;entryPerimeter=0;" edge="1" parent="wuGOkdKwMO8VdwPY9DZF-1" source="UupQosg42-_fohMUtWr8-16" target="UupQosg42-_fohMUtWr8-0">
          <mxGeometry relative="1" as="geometry" />
        </mxCell>
        <mxCell id="UupQosg42-_fohMUtWr8-18" value="Language Resources" style="rounded=0;whiteSpace=wrap;html=1;" vertex="1" parent="wuGOkdKwMO8VdwPY9DZF-1">
          <mxGeometry x="1000" y="390" width="120" height="60" as="geometry" />
        </mxCell>
        <mxCell id="UupQosg42-_fohMUtWr8-22" style="edgeStyle=orthogonalEdgeStyle;rounded=0;orthogonalLoop=1;jettySize=auto;html=1;entryX=0;entryY=0.5;entryDx=0;entryDy=0;" edge="1" parent="wuGOkdKwMO8VdwPY9DZF-1" source="UupQosg42-_fohMUtWr8-19" target="UupQosg42-_fohMUtWr8-15">
          <mxGeometry relative="1" as="geometry" />
        </mxCell>
        <mxCell id="UupQosg42-_fohMUtWr8-19" value="MuzicUP API" style="rounded=0;whiteSpace=wrap;html=1;" vertex="1" parent="wuGOkdKwMO8VdwPY9DZF-1">
          <mxGeometry x="820" y="430" width="120" height="60" as="geometry" />
        </mxCell>
        <mxCell id="UupQosg42-_fohMUtWr8-21" style="edgeStyle=orthogonalEdgeStyle;rounded=0;orthogonalLoop=1;jettySize=auto;html=1;entryX=0.91;entryY=-0.016;entryDx=0;entryDy=0;entryPerimeter=0;" edge="1" parent="wuGOkdKwMO8VdwPY9DZF-1" source="UupQosg42-_fohMUtWr8-1" target="UupQosg42-_fohMUtWr8-0">
          <mxGeometry relative="1" as="geometry" />
        </mxCell>
        <mxCell id="UupQosg42-_fohMUtWr8-29" style="edgeStyle=orthogonalEdgeStyle;rounded=0;orthogonalLoop=1;jettySize=auto;html=1;" edge="1" parent="wuGOkdKwMO8VdwPY9DZF-1" source="UupQosg42-_fohMUtWr8-23" target="UupQosg42-_fohMUtWr8-18">
          <mxGeometry relative="1" as="geometry" />
        </mxCell>
        <mxCell id="UupQosg42-_fohMUtWr8-39" style="edgeStyle=orthogonalEdgeStyle;rounded=0;orthogonalLoop=1;jettySize=auto;html=1;" edge="1" parent="wuGOkdKwMO8VdwPY9DZF-1" source="UupQosg42-_fohMUtWr8-23" target="UupQosg42-_fohMUtWr8-33">
          <mxGeometry relative="1" as="geometry" />
        </mxCell>
        <mxCell id="UupQosg42-_fohMUtWr8-23" value="Landing Page" style="shape=process;whiteSpace=wrap;html=1;backgroundOutline=1;" vertex="1" parent="wuGOkdKwMO8VdwPY9DZF-1">
          <mxGeometry x="640" y="260" width="120" height="60" as="geometry" />
        </mxCell>
        <mxCell id="UupQosg42-_fohMUtWr8-35" style="edgeStyle=orthogonalEdgeStyle;rounded=0;orthogonalLoop=1;jettySize=auto;html=1;entryX=0;entryY=0.5;entryDx=0;entryDy=0;" edge="1" parent="wuGOkdKwMO8VdwPY9DZF-1" source="UupQosg42-_fohMUtWr8-24" target="UupQosg42-_fohMUtWr8-33">
          <mxGeometry relative="1" as="geometry">
            <Array as="points">
              <mxPoint x="350" y="460" />
            </Array>
          </mxGeometry>
        </mxCell>
        <mxCell id="UupQosg42-_fohMUtWr8-24" value="MuzicUP Dashboard View" style="shape=process;whiteSpace=wrap;html=1;backgroundOutline=1;" vertex="1" parent="wuGOkdKwMO8VdwPY9DZF-1">
          <mxGeometry x="300" y="260" width="120" height="60" as="geometry" />
        </mxCell>
        <mxCell id="UupQosg42-_fohMUtWr8-31" style="edgeStyle=orthogonalEdgeStyle;rounded=0;orthogonalLoop=1;jettySize=auto;html=1;" edge="1" parent="wuGOkdKwMO8VdwPY9DZF-1" source="UupQosg42-_fohMUtWr8-25" target="UupQosg42-_fohMUtWr8-19">
          <mxGeometry relative="1" as="geometry">
            <Array as="points">
              <mxPoint x="610" y="290" />
              <mxPoint x="610" y="400" />
              <mxPoint x="880" y="400" />
            </Array>
          </mxGeometry>
        </mxCell>
        <mxCell id="UupQosg42-_fohMUtWr8-34" style="edgeStyle=orthogonalEdgeStyle;rounded=0;orthogonalLoop=1;jettySize=auto;html=1;entryX=0;entryY=0.5;entryDx=0;entryDy=0;" edge="1" parent="wuGOkdKwMO8VdwPY9DZF-1" source="UupQosg42-_fohMUtWr8-25" target="UupQosg42-_fohMUtWr8-33">
          <mxGeometry relative="1" as="geometry">
            <Array as="points">
              <mxPoint x="520" y="460" />
            </Array>
          </mxGeometry>
        </mxCell>
        <mxCell id="UupQosg42-_fohMUtWr8-25" value="MuzicUP CP VIew" style="shape=process;whiteSpace=wrap;html=1;backgroundOutline=1;" vertex="1" parent="wuGOkdKwMO8VdwPY9DZF-1">
          <mxGeometry x="460" y="260" width="120" height="60" as="geometry" />
        </mxCell>
        <mxCell id="UupQosg42-_fohMUtWr8-28" style="edgeStyle=orthogonalEdgeStyle;rounded=0;orthogonalLoop=1;jettySize=auto;html=1;entryX=0.682;entryY=0.021;entryDx=0;entryDy=0;entryPerimeter=0;" edge="1" parent="wuGOkdKwMO8VdwPY9DZF-1" source="UupQosg42-_fohMUtWr8-19" target="UupQosg42-_fohMUtWr8-0">
          <mxGeometry relative="1" as="geometry">
            <Array as="points">
              <mxPoint x="880" y="590" />
              <mxPoint x="790" y="590" />
            </Array>
          </mxGeometry>
        </mxCell>
        <mxCell id="UupQosg42-_fohMUtWr8-38" style="edgeStyle=orthogonalEdgeStyle;rounded=0;orthogonalLoop=1;jettySize=auto;html=1;entryX=0;entryY=0.75;entryDx=0;entryDy=0;" edge="1" parent="wuGOkdKwMO8VdwPY9DZF-1" source="UupQosg42-_fohMUtWr8-30" target="UupQosg42-_fohMUtWr8-33">
          <mxGeometry relative="1" as="geometry">
            <Array as="points">
              <mxPoint x="190" y="475" />
            </Array>
          </mxGeometry>
        </mxCell>
        <mxCell id="UupQosg42-_fohMUtWr8-30" value="MuzicUP SmarlLink" style="shape=process;whiteSpace=wrap;html=1;backgroundOutline=1;" vertex="1" parent="wuGOkdKwMO8VdwPY9DZF-1">
          <mxGeometry x="130" y="260" width="120" height="60" as="geometry" />
        </mxCell>
        <mxCell id="UupQosg42-_fohMUtWr8-33" value="MuzicUP Core" style="rounded=0;whiteSpace=wrap;html=1;" vertex="1" parent="wuGOkdKwMO8VdwPY9DZF-1">
          <mxGeometry x="680" y="430" width="120" height="60" as="geometry" />
        </mxCell>
        <mxCell id="UupQosg42-_fohMUtWr8-37" style="edgeStyle=orthogonalEdgeStyle;rounded=0;orthogonalLoop=1;jettySize=auto;html=1;entryX=0.68;entryY=0.002;entryDx=0;entryDy=0;entryPerimeter=0;exitX=0.5;exitY=1;exitDx=0;exitDy=0;" edge="1" parent="wuGOkdKwMO8VdwPY9DZF-1" source="UupQosg42-_fohMUtWr8-33" target="UupQosg42-_fohMUtWr8-0">
          <mxGeometry relative="1" as="geometry">
            <Array as="points">
              <mxPoint x="740" y="490" />
              <mxPoint x="740" y="590" />
              <mxPoint x="788" y="590" />
            </Array>
          </mxGeometry>
        </mxCell>
      </root>
    </mxGraphModel>
  </diagram>
</mxfile>
